<svg width="14" height="7" viewBox="0 0 14 7" fill="none" xmlns="http://www.w3.org/2000/svg">
<path fill-rule="evenodd" clip-rule="evenodd" d="M13.8538 3.16392L10.6774 0.139209C10.4825 -0.0464029 10.1665 -0.0464029 9.97154 0.139209C9.77662 0.32482 9.77662 0.625755 9.97154 0.811367L12.2959 3.02471H1.01247L1.01247 0.50711C1.01247 0.245364 0.78582 0.0331766 0.506234 0.0331766C0.226649 0.0331766 0 0.245364 0 0.50711V6.52607C0 6.78782 0.226649 7.00001 0.506234 7.00001C0.78582 7.00001 1.01247 6.78782 1.01247 6.52607L1.01247 3.97529H12.2959L9.97154 6.18863C9.77662 6.37424 9.77662 6.67518 9.97154 6.86079C10.1665 7.0464 10.4825 7.0464 10.6774 6.86079L13.8538 3.83608C14.0487 3.65047 14.0487 3.34953 13.8538 3.16392Z" fill="black"/>
</svg>
