<svg width="6" height="10" viewBox="0 0 6 10" fill="none" xmlns="http://www.w3.org/2000/svg">
<path d="M3.375 0.531738C3.375 0.324632 3.20711 0.156738 3 0.156738C2.79289 0.156738 2.625 0.324631 2.625 0.531738L3.375 0.531738ZM2.73483 9.26524C2.88128 9.41169 3.11872 9.41169 3.26516 9.26524L5.65165 6.87876C5.7981 6.73231 5.7981 6.49487 5.65165 6.34843C5.5052 6.20198 5.26777 6.20198 5.12132 6.34843L3 8.46975L0.87868 6.34843C0.732233 6.20198 0.494796 6.20198 0.348349 6.34843C0.201903 6.49487 0.201903 6.73231 0.348349 6.87876L2.73483 9.26524ZM2.625 0.531738L2.625 9.00008L3.375 9.00008L3.375 0.531738L2.625 0.531738Z" fill="#575449"/>
</svg>
