<svg width="20" height="21" viewBox="0 0 20 21" fill="none" xmlns="http://www.w3.org/2000/svg">
<path d="M5.91133 12.8738C5.52081 13.2643 5.52081 13.8975 5.91133 14.288C6.30186 14.6786 6.93502 14.6786 7.32555 14.288L5.91133 12.8738ZM19.7774 1.42201C19.7774 0.869729 19.3296 0.422014 18.7774 0.422014L9.77735 0.422014C9.22507 0.422014 8.77735 0.86973 8.77735 1.42201C8.77735 1.9743 9.22507 2.42201 9.77735 2.42201L17.7774 2.42201V10.422C17.7774 10.9743 18.2251 11.422 18.7773 11.422C19.3296 11.422 19.7773 10.9743 19.7773 10.422L19.7774 1.42201ZM2.39014 6.60986C2.39014 6.05757 1.94243 5.60986 1.39014 5.60986C0.837859 5.60986 0.390143 6.05757 0.390143 6.60986L2.39014 6.60986ZM1.39014 19.3901L0.390143 19.3901C0.390143 19.9424 0.837859 20.3901 1.39014 20.3901L1.39014 19.3901ZM15.3323 20.3901C15.8846 20.3901 16.3323 19.9424 16.3323 19.3901C16.3323 18.8379 15.8846 18.3901 15.3323 18.3901L15.3323 20.3901ZM7.32555 14.288L19.4845 2.12912L18.0702 0.714907L5.91133 12.8738L7.32555 14.288ZM0.390143 6.60986V19.3901L2.39014 19.3901V6.60986L0.390143 6.60986ZM1.39014 20.3901L15.3323 20.3901L15.3323 18.3901L1.39014 18.3901L1.39014 20.3901Z" fill="#B87333"/>
</svg>
