<svg width="485" height="198" viewBox="0 0 485 198" fill="none" xmlns="http://www.w3.org/2000/svg">
<path d="M5.60149 1.38027V50.587H36.9975V45.0659H11.8945V27.1223H33.5398V21.6013H11.8945V6.90136H36.5826V1.38027H5.60149Z" fill="#575449"/>
<path d="M47.7423 1.38027V50.587H65.2383C81.4204 50.587 91.1711 41.4082 91.1711 26.0871C91.1711 10.352 81.697 1.38027 64.2702 1.38027H47.7423ZM54.0353 6.90136H63.9244C77.202 6.90136 84.1866 13.5267 84.1866 26.0871C84.1866 38.6476 77.2711 45.0659 63.9244 45.0659H54.0353V6.90136Z" fill="#575449"/>
<path d="M100.283 1.38027V32.3674C100.283 45.549 106.991 52.0363 120.753 52.0363C134.445 52.0363 141.153 45.549 141.153 32.3674V1.38027H134.86V30.642C134.86 34.8519 134.653 38.1645 133.132 40.9251C131.195 44.3067 126.838 46.3771 120.753 46.3771C114.667 46.3771 110.241 44.3067 108.374 40.9251C106.853 38.1645 106.645 34.5758 106.645 29.6758V1.38027H100.283Z" fill="#575449"/>
<path d="M196.186 16.0112C193.419 5.45207 185.951 0 174.471 0C160.087 0 150.267 10.4901 150.267 26.0871C150.267 33.9547 153.172 41.0631 158.082 45.894C161.954 49.6898 167.901 51.9672 174.54 51.9672C186.919 51.9672 194.872 45.48 196.462 34.6448H189.478C188.717 41.7532 183.185 46.3081 175.163 46.3081C164.72 46.3081 157.39 38.2335 157.39 26.0181C157.39 14.0788 164.79 5.65912 174.955 5.65912C182.216 5.65912 187.195 9.24782 189.132 16.0112H196.186Z" fill="#575449"/>
<path d="M219.678 1.38027L199.624 50.587H206.401L210.827 39.6138H235.722L240.079 50.587H246.925L226.871 1.38027H219.678ZM223.205 7.86755H223.413L233.648 34.2998H212.901L223.205 7.86755Z" fill="#575449"/>
<path d="M244.362 1.38027V7.03939H259.437V50.587H265.73V7.03939H280.598V1.38027H244.362Z" fill="#575449"/>
<path d="M288.103 1.38027V50.587H294.396V1.38027H288.103Z" fill="#575449"/>
<path d="M328.106 0C321.537 0 315.313 2.62252 311.094 7.17742C306.254 12.3534 304.041 18.3576 304.041 26.0181C304.041 33.4716 306.184 39.5448 310.887 44.7208C315.036 49.3447 321.26 52.0363 328.106 52.0363C334.953 52.0363 340.416 49.7588 344.911 45.0659C349.406 40.3039 352.172 33.4716 352.172 26.0181C352.172 17.7365 349.475 11.0422 344.012 5.93517C339.863 2.07041 334.399 0 328.106 0ZM328.106 5.45207C337.857 5.45207 345.187 13.6647 345.187 26.0181C345.187 38.4406 337.995 46.5152 328.106 46.5152C318.286 46.5152 311.025 38.5096 311.025 26.0181C311.025 13.8027 318.286 5.45207 328.106 5.45207Z" fill="#575449"/>
<path d="M361.3 1.38027V50.587H367.593L367.316 9.93796H367.593L395.6 50.587H402.931V1.38027H396.638V41.2701L396.43 41.5462L368.63 1.38027H361.3Z" fill="#575449"/>
<path d="M35.1908 116.538C32.3123 119.721 28.578 121.274 23.9879 121.274C19.9423 121.274 16.597 120.032 13.9519 117.47C11.2289 114.752 9.90633 111.647 9.90633 108.153C9.90633 103.883 12.2403 99.8454 15.6634 98.0597C17.4528 100.156 20.1757 102.796 23.8323 105.979C29.5115 110.87 33.3237 114.131 35.113 115.839C35.4242 116.15 35.4242 116.305 35.1908 116.538ZM36.1244 93.246C34.8018 93.246 34.1794 93.7118 34.1794 94.5659C34.1794 95.1094 34.6462 95.6528 35.5798 96.041C38.9252 97.3609 40.5589 99.9231 40.5589 103.65C40.5589 105.901 40.0143 108.153 39.0029 110.327C38.7696 110.715 38.614 110.715 38.3806 110.482L27.3332 101.01C20.0979 94.7212 16.1302 90.1404 16.1302 85.2491C16.1302 81.2118 18.4642 78.3391 21.9651 78.3391C23.9101 78.3391 25.6216 79.3484 26.9442 81.4447C27.6444 82.454 28.8114 84.9385 29.5115 85.7925C29.9005 86.1807 30.3673 86.4137 30.9119 86.4137C32.3901 86.4137 32.7013 85.5596 32.7013 82.1434C32.7013 80.0471 32.3901 78.6496 31.8455 77.7956C30.5229 75.8546 27.8778 74.9229 23.7545 74.9229C20.1757 74.9229 17.1416 76.0098 14.652 78.1838C12.2403 80.3577 10.9955 83.2304 10.9955 86.8795C10.9955 87.5783 10.9955 88.1217 11.0733 88.5099C11.3845 90.8391 12.2403 93.1684 13.7185 95.4199L13.8741 95.7305C13.8741 95.8081 13.7963 95.8858 13.5629 95.9634C7.72798 97.9044 3.99365 103.339 3.99365 109.318C3.99365 113.898 5.78302 117.703 9.36175 120.575C13.0183 123.448 17.2972 124.846 22.2763 124.846C28.4224 124.846 33.4015 122.672 37.3692 118.401C37.6026 118.169 37.6026 118.169 37.836 118.401C39.2363 119.877 40.1699 121.507 40.5589 123.138C40.6367 123.681 41.0257 123.914 41.7259 123.914H45.927C46.4716 123.914 46.705 123.681 46.705 123.138C46.705 120.265 45.0712 117.082 41.7259 113.743C41.3369 113.355 41.1035 113.122 41.1035 113.044C41.1035 112.967 41.1813 112.811 41.2591 112.578C42.5817 110.094 43.3597 107.687 44.0598 104.193C44.4488 102.408 44.76 101.243 44.9156 100.699C45.538 98.6032 46.5494 97.128 48.0276 96.274C48.4166 95.9634 50.3615 95.2646 49.9725 94.4882C49.9725 93.6342 49.4279 93.246 48.3388 93.246H36.1244Z" fill="#575449"/>
<path d="M79.0018 74.7072V123.914H85.2948V105.487H96.2904C108.185 105.487 114.547 99.8972 114.547 89.8902C114.547 80.3663 108.116 74.7072 96.2904 74.7072H79.0018ZM85.2948 80.1593H96.0829C104.036 80.1593 107.977 83.4029 107.977 90.0282C107.977 96.8606 104.105 99.9662 96.0829 99.9662H85.2948V80.1593Z" fill="#575449"/>
<path d="M131.539 74.7072L111.484 123.914H118.261L122.687 112.941H147.583L151.939 123.914H158.786L138.731 74.7072H131.539ZM135.066 81.1945H135.273L145.508 107.627H124.762L135.066 81.1945Z" fill="#575449"/>
<path d="M164.567 74.7072V123.914H170.86L170.583 83.2649H170.86L198.867 123.914H206.197V74.7072H199.904V114.597L199.697 114.873L171.897 74.7072H164.567Z" fill="#575449"/>
<path d="M217.783 74.7072V123.914H235.279C251.461 123.914 261.212 114.735 261.212 99.4141C261.212 83.679 251.738 74.7072 234.311 74.7072H217.783ZM224.076 80.2283H233.965C247.243 80.2283 254.227 86.8536 254.227 99.4141C254.227 111.975 247.312 118.393 233.965 118.393H224.076V80.2283Z" fill="#575449"/>
<path d="M270.324 74.7072V123.914H301.72V118.393H276.617V100.449H298.262V94.9282H276.617V80.2283H301.305V74.7072H270.324Z" fill="#575449"/>
<path d="M312.465 74.7072V123.914H318.343L317.859 83.1269H318.343L335.355 123.914H340.818L357.899 83.1269H358.245L357.83 123.914H363.708V74.7072H356.378L338.19 116.736H337.913L319.864 74.7072H312.465Z" fill="#575449"/>
<path d="M375.753 74.7072V123.914H382.046V74.7072H375.753Z" fill="#575449"/>
<path d="M437.609 89.3381C434.843 78.779 427.374 73.3269 415.894 73.3269C401.51 73.3269 391.69 83.817 391.69 99.4141C391.69 107.282 394.595 114.39 399.505 119.221C403.378 123.017 409.325 125.294 415.964 125.294C428.342 125.294 436.295 118.807 437.885 107.972H430.901C430.14 115.08 424.608 119.635 416.586 119.635C406.144 119.635 398.813 111.56 398.813 99.3451C398.813 87.4057 406.213 78.9861 416.379 78.9861C423.64 78.9861 428.619 82.5748 430.555 89.3381H437.609Z" fill="#575449"/>
<path d="M484.585 87.9578C483.755 78.779 476.84 73.3269 465.429 73.3269C453.535 73.3269 446.343 79.4001 446.343 87.6128C446.343 94.5831 451.599 98.2409 462.387 100.725C468.196 102.037 472.483 102.658 474.834 104.797C476.702 106.522 477.67 108.386 477.67 110.594C477.67 115.701 472.691 119.98 465.291 119.98C457.131 119.98 452.013 115.563 451.944 108.731H445.167C445.859 119.29 453.327 125.363 465.775 125.363C477.531 125.363 485 118.393 485 109.766C485 105.694 482.995 102.313 479.26 99.9662C475.042 97.3437 470.063 96.5155 464.461 95.2733C456.993 93.6169 453.742 92.0296 453.742 86.7846C453.742 82.2987 458.721 78.71 465.706 78.71C472.967 78.71 477.462 82.1607 477.946 87.9578H484.585Z" fill="#575449"/>
<path d="M23.789 157.351C23.9273 157.006 24.0657 156.868 24.1348 156.868C24.2731 156.868 24.4114 157.075 24.5497 157.42L31.8801 176.537C31.9492 176.744 32.0184 176.951 32.0184 177.02C32.0184 177.227 31.8801 177.365 31.6035 177.365H15.9746C15.6288 177.365 15.4905 177.227 15.4905 176.951C15.4905 176.813 15.5597 176.675 15.6288 176.468L23.789 157.351ZM46.7482 193.445C45.7801 192.479 44.6736 190.478 43.498 187.372L28.4224 148.103C28.2149 147.62 27.8691 147.413 27.3851 147.413H25.1721C24.688 147.413 24.3423 147.62 24.1348 148.103L7.19203 186.13C6.29303 188.2 5.39402 189.925 4.42587 191.375C2.28209 194.618 0 194.825 0 196.068C0 196.827 0.691542 197.241 2.07462 197.241H11.6871C13.001 197.241 13.6925 196.827 13.6925 195.93C13.6925 194.48 10.5114 194.756 10.5114 191.306C10.5114 189.58 11.4796 186.337 13.4851 181.575C13.6925 181.161 13.9691 180.954 14.4532 180.954H32.5716C33.2632 180.954 33.6781 181.23 33.8855 181.713L36.2368 187.786C37.0666 189.994 37.4816 191.513 37.4816 192.41C37.4816 193.307 36.9975 194.066 36.0293 194.549C35.0612 195.032 34.5771 195.516 34.5771 195.999C34.5771 196.827 35.1303 197.241 36.3059 197.241H47.7855C49.0995 197.241 49.7219 196.827 49.7219 195.999C49.7219 194.825 48.2696 194.963 46.7482 193.445Z" fill="#B87333"/>
<path d="M65.7337 170.188C64.973 170.188 64.6273 169.842 64.6273 169.221V152.727C64.6273 151.968 65.1114 151.554 66.0104 151.554H70.2288C78.1815 151.554 82.1233 153.555 82.1233 160.457C82.1233 167.358 76.8676 170.188 69.9521 170.188H65.7337ZM94.571 194.342C93.8103 193.859 92.9805 192.893 92.2198 191.513C91.4591 190.132 90.2143 187.441 88.4855 183.369C86.8258 179.435 85.3044 176.744 83.9904 175.156C82.6765 173.569 80.8093 172.603 78.4581 172.258C77.6974 172.189 77.6974 171.499 78.4581 171.43C83.3681 170.671 86.7566 168.462 88.6238 164.735C89.3845 163.286 89.7302 161.561 89.7302 159.559C89.7302 156.04 88.4855 153.279 86.0651 151.209C83.5064 149 78.9422 147.896 72.3725 147.896C71.2661 147.896 69.4681 147.896 67.0477 147.965H61.7228H55.5681C54.3233 147.965 53.7009 148.379 53.7009 149.207C53.286 150.036 55.2223 150.795 55.7755 151.071C56.6745 151.554 57.2278 152.244 57.4352 153.072C57.6427 153.9 57.7119 155.557 57.7119 158.041V185.163C57.7119 188.89 57.3661 191.306 56.7437 192.479C56.3979 193.1 55.7064 193.79 54.7382 194.411C53.8392 195.032 53.3551 195.516 53.3551 195.93C53.3551 196.827 53.9775 197.241 55.2223 197.241H67.0477C68.3616 197.241 68.984 196.827 68.984 195.93C68.984 194.549 66.6327 194.48 65.5954 192.479C64.973 191.168 64.6273 188.752 64.6273 185.163V174.742C64.6273 174.19 64.9039 173.914 65.388 173.845C66.0104 173.776 66.9785 173.707 68.1541 173.707C69.883 173.707 71.1278 173.776 71.8885 173.983C75.9686 174.811 78.3198 177.71 80.7402 183.3L82.3999 187.579L84.2671 192.134C84.7511 193.307 85.2352 194.135 85.581 194.756C86.6875 196.482 87.6556 197.241 89.7994 197.241H94.4327C95.6083 197.241 96.1616 196.827 96.1616 195.999C96.1616 194.963 95.1934 194.963 94.571 194.342Z" fill="#B87333"/>
<path d="M123.895 194.135C119.262 194.135 115.182 192.203 111.724 188.338C108.335 184.473 106.607 179.021 106.607 172.051C106.607 165.633 108.197 160.457 111.447 156.592C114.698 152.727 118.709 150.795 123.342 150.795C127.422 150.795 130.603 152.313 132.954 155.35C134.061 156.73 135.167 159.283 135.928 160.181C136.343 160.595 136.827 160.802 137.449 160.802C138.902 160.802 139.316 159.628 139.316 157.075C139.316 153.831 138.902 151.761 138.072 150.864C137.104 149.69 135.306 148.793 132.747 148.172C130.188 147.482 127.491 147.137 124.794 147.137C117.671 147.137 111.517 149.552 106.468 154.314C101.42 159.076 98.9304 165.219 98.9304 172.741C98.9304 179.849 101.213 185.785 105.777 190.685C110.41 195.585 116.565 198 124.379 198C130.257 198 134.614 196.896 137.449 194.756C139.247 193.307 140.146 190.685 140.146 186.751C140.146 184.749 139.524 183.783 138.21 183.783C137.588 183.783 136.827 184.404 136.481 185.025C136.135 185.578 135.236 187.096 134.683 187.855C131.848 192.065 128.252 194.135 123.895 194.135Z" fill="#B87333"/>
<path d="M189.288 158.524C189.288 153.348 189.496 152.106 191.086 151.071C191.916 150.519 193.576 149.967 193.299 149.138C193.23 148.379 192.539 147.965 191.363 147.965H180.298C179.054 147.965 178.431 148.379 178.431 149.138C178.431 150.312 179.538 150.312 180.575 151.071C181.336 151.554 181.82 152.313 182.027 153.21C182.235 154.107 182.373 155.902 182.373 158.524V168.738C182.373 169.152 182.166 169.359 181.751 169.359H158.722C158.169 169.359 157.892 169.083 157.892 168.6V158.524C157.892 153.348 158.169 152.106 159.621 151.071C160.451 150.519 162.111 149.967 161.834 149.138C161.834 148.379 161.212 147.965 159.967 147.965H148.833C147.588 147.965 146.966 148.379 146.966 149.138C146.966 150.243 148.003 150.381 149.179 151.071C149.94 151.554 150.424 152.313 150.631 153.21C150.839 154.107 150.908 155.902 150.908 158.524V185.371C150.908 188.614 150.7 190.823 150.216 191.927C149.801 192.962 149.11 193.79 148.073 194.411C147.035 194.963 146.551 195.446 146.551 195.93C146.551 196.827 147.312 197.241 148.764 197.241H160.036C161.488 197.241 162.18 196.827 162.18 195.93C162.18 195.446 161.696 194.894 160.728 194.411C159.829 193.928 159.137 193.238 158.722 192.41C158.169 191.375 157.892 189.028 157.892 185.371V173.569C157.892 173.155 158.1 172.948 158.515 172.948H181.543C182.096 172.948 182.373 173.224 182.373 173.707V185.371C182.373 188.752 182.096 191.03 181.612 192.134C180.437 194.549 178.016 194.687 178.016 195.93C178.016 196.827 178.708 197.241 180.16 197.241H191.501C192.954 197.241 193.645 196.827 193.645 195.93C193.645 194.273 190.948 194.756 189.911 191.789C189.496 190.685 189.288 188.545 189.288 185.371V158.524Z" fill="#B87333"/>
<path d="M212.593 158.524C212.593 155.902 212.662 154.176 212.869 153.279C213.077 152.382 213.63 151.623 214.391 151.071C215.428 150.45 216.535 150.036 216.535 149.138C216.535 148.379 215.912 147.965 214.667 147.965H203.603C202.289 147.965 201.667 148.379 201.667 149.138C201.667 150.243 202.773 150.381 203.879 151.071C204.64 151.623 205.124 152.382 205.332 153.279C205.539 154.176 205.677 155.971 205.677 158.524V185.371C205.677 188.752 205.47 190.961 204.986 191.996C204.502 193.031 203.81 193.79 202.773 194.411C201.805 194.963 201.321 195.446 201.321 195.93C201.321 196.827 202.012 197.241 203.465 197.241H214.806C216.258 197.241 216.95 196.827 216.95 195.93C216.95 195.446 216.465 194.963 215.428 194.342C214.391 193.721 213.699 192.962 213.284 191.996C212.8 190.892 212.593 188.683 212.593 185.371V158.524Z" fill="#B87333"/>
<path d="M258.74 147.965C257.426 147.965 256.735 148.379 256.735 149.207C256.735 150.657 259.985 150.864 259.985 153.831C259.985 155.35 259.017 158.455 257.15 163.079L246.708 187.717C246.5 188.131 246.362 188.338 246.293 188.338C246.154 188.338 246.016 188.2 245.878 187.855L234.191 157.42C233.292 154.936 232.808 153.417 232.808 152.796C232.808 152.037 233.292 151.347 234.329 150.795C235.366 150.174 235.85 149.69 235.85 149.207C235.85 148.379 235.297 147.965 234.121 147.965H222.849C221.397 147.965 220.706 148.379 220.706 149.207C220.706 150.381 222.365 150.588 223.748 151.761C224.647 152.589 225.754 154.59 226.929 157.834L242.005 197.103C242.212 197.586 242.489 197.793 242.973 197.793H245.324C245.739 197.793 246.085 197.586 246.293 197.103L263.235 159.076C264.964 155.488 266.486 153.072 267.73 151.899C269.113 150.726 270.635 150.174 270.635 149.138C270.635 148.379 269.943 147.965 268.56 147.965H258.74Z" fill="#B87333"/>
<path d="M309.667 183.714C307.454 183.369 305.794 189.649 301.853 191.789C299.778 193.031 296.32 193.652 291.549 193.652C288.99 193.652 287.261 193.376 286.5 192.755C285.463 191.996 285.394 190.754 285.394 186.337V174.328C285.394 173.707 285.67 173.431 286.293 173.431C289.543 173.431 291.894 173.431 293.347 173.5C294.107 173.5 295.283 173.569 296.735 173.638C298.257 173.707 299.294 173.776 299.916 173.776C302.406 173.776 303.097 173.362 303.305 171.637C303.305 171.154 303.512 170.671 303.512 170.188C303.512 169.29 302.682 168.807 301.023 168.807C300.4 168.807 299.156 168.876 297.427 169.083L293.762 169.359C291.894 169.428 289.681 169.497 286.984 169.497C285.67 169.497 285.394 169.152 285.394 167.979V152.934C285.394 151.968 285.878 151.485 286.915 151.485H289.612C296.044 151.485 300.055 152.037 301.783 153.141C303.097 154.107 303.651 154.659 304.273 155.902C304.757 156.73 304.826 156.868 305.172 157.903L305.587 158.869C306.071 160.181 306.763 160.871 307.592 160.871C308.906 160.871 309.598 160.181 309.598 158.869C309.598 156.04 309.46 152.865 309.252 149.414C309.183 148.103 308.284 147.482 306.486 147.482C306.209 147.482 304.757 147.551 302.06 147.758C299.432 147.896 296.873 147.965 294.315 147.965H276.335C275.09 147.965 274.467 148.379 274.467 149.207C274.053 150.036 275.989 150.795 276.542 151.071C277.441 151.554 277.925 152.244 278.133 153.072C278.34 153.831 278.478 155.35 278.478 157.627V185.371C278.478 188.683 278.202 190.892 277.718 192.065C277.303 193.031 276.611 193.79 275.574 194.411C274.606 194.963 274.122 195.446 274.122 195.93C274.122 196.827 274.813 197.241 276.266 197.241H294.246C296.873 197.241 299.432 197.31 301.853 197.517C304.273 197.724 305.656 197.793 305.863 197.793C308.007 197.793 309.39 196.068 309.736 194.48C309.944 193.652 310.22 192.548 310.428 191.237C310.635 189.925 310.843 188.959 311.05 188.338C311.396 187.027 311.603 186.13 311.603 185.647C311.603 184.542 310.773 183.714 309.667 183.714Z" fill="#B87333"/>
</svg>
