<svg width="14" height="14" viewBox="0 0 14 14" fill="none" xmlns="http://www.w3.org/2000/svg">
<path d="M11.3202 2.83489C12.4401 3.98923 13 5.37904 13 7.00431C13 8.64106 12.4097 10.0497 11.2292 11.2302C10.0494 12.4101 8.63819 13 6.99569 13C5.35319 13 3.94329 12.4129 2.76597 11.2388C1.58866 10.0641 1 8.65255 1 7.00431C1 5.52836 1.47667 4.23331 2.43 3.11916L3.08471 3.65327C2.25771 4.61809 1.84422 5.7351 1.84422 7.00431C1.84422 8.41709 2.3496 9.62886 3.36037 10.6396C4.37114 11.6504 5.58291 12.1558 6.99569 12.1558C8.40847 12.1558 9.62024 11.6504 10.631 10.6396C11.6418 9.62886 12.1472 8.41709 12.1472 7.00431C12.1472 5.63173 11.6705 4.44293 10.7172 3.43791L9.95908 5.11773L8.86504 1L12.9742 2.09404L11.3202 2.83489Z" fill="#575449" stroke="#575449" stroke-width="0.5" stroke-linejoin="round"/>
</svg>
