<svg width="209" height="134" viewBox="0 0 209 134" fill="none" xmlns="http://www.w3.org/2000/svg">
<rect opacity="0.7" width="209" height="134" fill="#575449"/>
<path d="M107.407 71.8902C107.236 71.8855 107.075 71.9686 106.979 72.1105C106.884 72.2523 106.867 72.4332 106.936 72.59L109.879 79.3329C110.024 79.6926 110.042 80.0535 109.942 80.3484C109.846 80.6318 109.628 80.8976 109.207 81.0658C108.546 81.3303 107.795 81.0333 107.482 80.3683L104.591 73.6796C104.524 73.5235 104.382 73.4124 104.214 73.3846C104.046 73.3568 103.876 73.4162 103.762 73.5421L101.52 76.0153C101.212 76.3552 100.647 76.1354 100.649 75.6766L100.726 62.6713C100.728 62.2352 101.249 62.0112 101.568 62.3093L110.968 71.1129C111.304 71.4274 111.072 71.9902 110.613 71.9777L107.407 71.8902Z" fill="#FBFAF7" stroke="#FBFAF7" stroke-linejoin="round"/>
<rect x="73" y="42" width="63.4203" height="50.3028" rx="5" stroke="#FBFAF7" stroke-width="3"/>
<line x1="73" y1="52.3366" x2="136.68" y2="52.3366" stroke="#FBFAF7" stroke-width="3"/>
<ellipse cx="79.7973" cy="47.5479" rx="1.78876" ry="1.84937" fill="#FBFAF7"/>
<ellipse cx="86.237" cy="47.5479" rx="1.78876" ry="1.84937" fill="#FBFAF7"/>
<ellipse cx="93.392" cy="47.5479" rx="1.78877" ry="1.84937" fill="#FBFAF7"/>
</svg>
