<svg width="57" height="16" viewBox="0 0 57 16" fill="none" xmlns="http://www.w3.org/2000/svg">
<path d="M48.6551 3.19114C48.6996 3.08033 48.7441 3.03601 48.7663 3.03601C48.8108 3.03601 48.8554 3.10249 48.8999 3.2133L51.2587 9.3518C51.2809 9.41828 51.3032 9.48477 51.3032 9.50693C51.3032 9.57341 51.2587 9.61773 51.1697 9.61773H46.1405C46.0292 9.61773 45.9847 9.57341 45.9847 9.48477C45.9847 9.44044 46.007 9.39612 46.0292 9.32964L48.6551 3.19114ZM56.0431 14.7812C55.7316 14.4709 55.3755 13.8283 54.9972 12.831L50.146 0.221608C50.0793 0.0664825 49.968 0 49.8122 0H49.1001C48.9444 0 48.8331 0.0664825 48.7663 0.221608L43.3143 12.4321C43.025 13.097 42.7357 13.651 42.4242 14.1163C41.7344 15.1579 41 15.2244 41 15.6233C41 15.867 41.2225 16 41.6676 16H44.7608C45.1836 16 45.4061 15.867 45.4061 15.5789C45.4061 15.1136 44.3825 15.2022 44.3825 14.0942C44.3825 13.5402 44.694 12.4986 45.3394 10.9695C45.4061 10.8366 45.4951 10.7701 45.6509 10.7701H51.4812C51.7038 10.7701 51.8373 10.8587 51.904 11.0139L52.6606 12.964C52.9277 13.6731 53.0612 14.1607 53.0612 14.4488C53.0612 14.7368 52.9054 14.9806 52.5939 15.1357C52.2823 15.2909 52.1266 15.446 52.1266 15.6011C52.1266 15.867 52.3046 16 52.6829 16H56.3769C56.7997 16 57 15.867 57 15.6011C57 15.2244 56.5327 15.2687 56.0431 14.7812Z" fill="black"/>
<path d="M0 0V15.7027H9.77368V13.9408H1.95904V8.21473H8.69728V6.45286H1.95904V1.76187H9.64451V0H0Z" fill="black"/>
<path d="M22.3298 13.3489C21.4337 14.3648 20.2712 14.8603 18.8423 14.8603C17.5829 14.8603 16.5415 14.4639 15.7181 13.6462C14.8704 12.7791 14.4587 11.788 14.4587 10.6731C14.4587 9.31039 15.1853 8.02202 16.2509 7.45217C16.8079 8.12113 17.6556 8.96352 18.7939 9.97935C20.5619 11.5403 21.7486 12.5809 22.3056 13.1259C22.4025 13.2251 22.4025 13.2746 22.3298 13.3489ZM22.6205 5.91604C22.2087 5.91604 22.015 6.06469 22.015 6.33723C22.015 6.51067 22.1603 6.6841 22.4509 6.80798C23.4924 7.22918 24.0009 8.0468 24.0009 9.23606C24.0009 9.95458 23.8314 10.6731 23.5166 11.3668C23.4439 11.4907 23.3955 11.4907 23.3228 11.4164L19.8837 8.39367C17.6314 6.38679 16.3962 4.92498 16.3962 3.36407C16.3962 2.07571 17.1228 1.15898 18.2126 1.15898C18.8181 1.15898 19.3509 1.48107 19.7626 2.15003C19.9806 2.47213 20.3439 3.26497 20.5619 3.53751C20.683 3.66139 20.8283 3.73572 20.9978 3.73572C21.458 3.73572 21.5548 3.46318 21.5548 2.37302C21.5548 1.70406 21.458 1.25809 21.2884 0.985547C20.8767 0.36614 20.0533 0.0688234 18.7697 0.0688234C17.6556 0.0688234 16.7111 0.415692 15.936 1.10943C15.1853 1.80317 14.7978 2.71989 14.7978 3.88438C14.7978 4.10736 14.7978 4.2808 14.822 4.40468C14.9189 5.14797 15.1853 5.89126 15.6454 6.60977L15.6939 6.70888C15.6939 6.73365 15.6696 6.75843 15.597 6.78321C13.7806 7.40262 12.6181 9.13696 12.6181 11.0447C12.6181 12.5065 13.1751 13.7206 14.2892 14.6373C15.4275 15.554 16.7595 16 18.3095 16C20.2228 16 21.7728 15.3063 23.008 13.9436C23.0806 13.8692 23.0806 13.8692 23.1533 13.9436C23.5892 14.4143 23.8799 14.9346 24.0009 15.4549C24.0252 15.6284 24.1463 15.7027 24.3642 15.7027H25.6721C25.8416 15.7027 25.9142 15.6284 25.9142 15.4549C25.9142 14.5382 25.4056 13.5224 24.3642 12.457C24.2431 12.3331 24.1705 12.2588 24.1705 12.234C24.1705 12.2092 24.1947 12.1597 24.2189 12.0853C24.6306 11.2925 24.8728 10.5244 25.0908 9.4095C25.2119 8.83964 25.3088 8.468 25.3572 8.29456C25.551 7.6256 25.8658 7.15485 26.326 6.88231C26.4471 6.78321 27.0525 6.56022 26.9314 6.31246C26.9314 6.03992 26.7619 5.91604 26.4228 5.91604H22.6205Z" fill="black"/>
<path d="M29.9346 0V15.7027H31.8937V9.82244H35.3166C39.0194 9.82244 41 8.03854 41 4.84515C41 1.80592 38.9979 0 35.3166 0H29.9346ZM31.8937 1.73985H35.252C37.7278 1.73985 38.9548 2.77495 38.9548 4.88919C38.9548 7.06951 37.7493 8.06056 35.252 8.06056H31.8937V1.73985Z" fill="black"/>
</svg>
