<svg width="99" height="44" viewBox="0 0 99 44" fill="none" xmlns="http://www.w3.org/2000/svg">
<path d="M30.2723 12.6802V29.6156H32.4568V12.6802H30.2723Z" fill="#575449"/>
<path d="M49.3435 17.2406C49.0554 14.0816 46.6549 12.2051 42.6941 12.2051C38.5652 12.2051 36.0686 14.2953 36.0686 17.1219C36.0686 19.5208 37.893 20.7797 41.6378 21.6348C43.6543 22.0861 45.1426 22.2999 45.9588 23.0362C46.6069 23.63 46.943 24.2713 46.943 25.0314C46.943 26.789 45.2146 28.2617 42.6461 28.2617C39.8134 28.2617 38.0371 26.7415 38.0131 24.3901H35.6606C35.9006 28.0242 38.4932 30.1144 42.8141 30.1144C46.895 30.1144 49.4875 27.7154 49.4875 24.7463C49.4875 23.345 48.7914 22.1811 47.4951 21.3735C46.0308 20.4709 44.3024 20.1859 42.358 19.7584C39.7654 19.1883 38.6372 18.642 38.6372 16.8368C38.6372 15.2929 40.3656 14.0578 42.7901 14.0578C45.3106 14.0578 46.871 15.2454 47.039 17.2406H49.3435Z" fill="#575449"/>
<path d="M67.7787 17.7157C66.8185 14.0816 64.2259 12.2051 60.2411 12.2051C55.248 12.2051 51.8393 15.8155 51.8393 21.1835C51.8393 23.8913 52.8475 26.3377 54.5519 28.0004C55.8961 29.3068 57.9606 30.0906 60.2651 30.0906C64.562 30.0906 67.3226 27.8579 67.8747 24.1288H65.4502C65.1861 26.5753 63.2657 28.1429 60.4811 28.1429C56.8563 28.1429 54.3118 25.3639 54.3118 21.1598C54.3118 17.0506 56.8804 14.1528 60.4091 14.1528C62.9296 14.1528 64.658 15.3879 65.3302 17.7157H67.7787Z" fill="#575449"/>
<path d="M70.9886 12.6802V29.6156H73.1731V21.5873H81.863V29.6156H84.0474V12.6802H81.863V19.6871H73.1731V12.6802H70.9886Z" fill="#575449"/>
<path d="M88.1017 12.6802V29.6156H99V27.7154H90.2861V21.5398H97.7997V19.6396H90.2861V14.5804H98.856V12.6802H88.1017Z" fill="#575449"/>
<path fill-rule="evenodd" clip-rule="evenodd" d="M18.6837 0.81592C19.0151 0.815917 19.2838 1.08177 19.2838 1.40972L19.2839 5.41283C21.5231 5.48162 23.6712 6.00517 25.62 6.90257C25.9205 7.04094 26.0507 7.39415 25.9108 7.69148C25.771 7.98881 25.414 8.11766 25.1135 7.97929C23.3204 7.15357 21.3449 6.66944 19.2839 6.60107L19.284 28.541C19.284 28.5414 19.284 28.5418 19.284 28.5422C19.284 28.5425 19.284 28.5429 19.284 28.5433L19.2841 36.0428C19.7337 36.0249 20.1864 35.9871 20.6412 35.9286C22.3936 35.7035 24.0351 35.1909 25.5235 34.446C25.8192 34.2979 26.1803 34.4152 26.3299 34.7078C26.4795 35.0004 26.361 35.3577 26.0652 35.5057C24.4571 36.3106 22.6848 36.8637 20.7958 37.1064C20.2891 37.1715 19.7848 37.2128 19.2841 37.2314L19.2841 41.6886C19.2841 42.0166 19.0155 42.2824 18.684 42.2824C18.3526 42.2824 18.0839 42.0166 18.0839 41.6886L18.0838 37.2322C12.2895 37.0252 7.11742 33.7735 4.43972 28.885C4.41116 28.8451 4.38746 28.8016 4.36945 28.7553C3.49767 27.1275 2.90104 25.3218 2.64746 23.3891C2.24083 20.2899 2.77136 17.2833 4.02262 14.6439C4.03622 14.606 4.05359 14.5698 4.07431 14.5359C6.36228 9.80241 10.9765 6.27067 16.6543 5.54133C17.1332 5.47982 17.61 5.43949 18.0836 5.41962L18.0836 1.40973C18.0836 1.08178 18.3523 0.815922 18.6837 0.81592ZM18.0836 6.60839C17.6612 6.62751 17.236 6.6642 16.8088 6.71907C11.8709 7.35337 7.80643 10.2727 5.57469 14.2487L18.0837 14.2487L18.0836 6.60839ZM18.0837 15.4363L4.97702 15.4363C4.19166 17.1908 3.74723 19.1111 3.71517 21.1059L18.0837 21.1059L18.0837 15.4363ZM18.0837 22.2935L3.74483 22.2935C3.76548 22.6065 3.79636 22.9209 3.83773 23.2362C4.05923 24.9244 4.5641 26.5085 5.29949 27.9484L18.0838 27.9484L18.0837 22.2935ZM18.0838 29.136L5.97849 29.136C8.55621 33.1891 13.0628 35.8499 18.0838 36.0437L18.0838 29.136Z" fill="#575449"/>
</svg>
